<svg version="1.1" id="Layer_1" xmlns="http://www.w3.org/2000/svg" xmlns:xlink="http://www.w3.org/1999/xlink" x="0px" y="0px"
	 width="100%" viewBox="0 0 512 512" enable-background="new 0 0 512 512" xml:space="preserve">
<path fill="#144A66" opacity="1.000000" stroke="none" 
	d="
M513.000000,123.000000 
	C513.000000,252.912277 513.000000,382.824554 513.000000,513.000000 
	C427.978760,513.000000 342.957214,513.000000 257.467590,512.531372 
	C256.916382,491.572113 256.833313,471.081512 256.773987,450.224976 
	C256.904266,448.885681 257.010864,447.912292 257.312866,446.639587 
	C266.955139,411.542969 276.402008,376.745667 286.009460,341.356842 
	C275.944275,338.741364 266.486176,336.283661 257.026093,333.368225 
	C257.035095,312.322266 257.046082,291.734070 257.513092,271.072083 
	C271.418793,270.973328 284.869965,270.830078 298.317169,270.999847 
	C302.052551,271.047028 303.251740,269.857513 303.109894,266.158630 
	C302.855591,259.526337 302.823822,252.867691 303.119080,246.238770 
	C303.299591,242.185532 302.119141,240.773697 297.880768,240.829025 
	C284.272949,241.006622 270.659637,240.766251 257.041809,240.238129 
	C257.039124,200.864517 257.043060,161.939926 257.214905,122.889542 
	C257.603577,122.589294 257.808502,122.397888 258.462708,122.126740 
	C342.290558,122.054398 425.653381,122.044319 509.016174,122.041786 
	C510.011597,122.041756 511.007019,122.138802 512.160278,122.335579 
	C512.540833,122.659668 512.768188,122.832794 513.000000,123.000000 
M327.607819,441.100464 
	C342.601013,424.897919 357.594208,408.695343 372.820923,392.240448 
	C356.283081,374.387146 340.266449,357.096558 323.997833,339.533936 
	C316.455963,346.531158 309.425201,353.054199 302.194611,359.762665 
	C303.459564,361.292450 304.344116,362.469971 305.337769,363.546875 
	C313.132782,371.994720 320.851532,380.516571 328.814819,388.803284 
	C331.344391,391.435638 331.373871,393.119507 328.816528,395.766052 
	C321.293884,403.550964 314.036926,411.593048 306.696533,419.553375 
	C304.596313,421.830902 302.566040,424.172913 300.201965,426.823700 
	C307.642456,433.707428 314.675537,440.214203 322.034729,447.022705 
	C323.983521,444.954346 325.557648,443.283691 327.607819,441.100464 
M439.467346,240.909134 
	C425.816528,240.910583 412.164917,240.990616 398.515411,240.857071 
	C395.191650,240.824554 393.696747,241.681686 393.809296,245.304886 
	C394.031372,252.456360 393.955841,259.620850 393.838318,266.777252 
	C393.791016,269.657715 394.636902,270.978821 397.783875,270.957916 
	C413.931061,270.850708 430.079773,270.849304 446.226959,270.958466 
	C449.403992,270.979950 450.206055,269.608276 450.137054,266.752777 
	C450.008331,261.428802 450.107086,256.099396 450.107697,250.772232 
	C450.108856,240.910782 450.107788,240.910782 439.467346,240.909134 
M282.500458,210.923157 
	C287.992706,210.920547 293.488098,210.806107 298.975952,210.960190 
	C301.937469,211.043320 303.153900,210.067139 303.087616,206.972488 
	C302.930908,199.652878 302.947021,192.325882 303.083832,185.005447 
	C303.138367,182.085281 302.271118,180.821518 299.139313,180.861649 
	C288.489441,180.998123 277.836304,180.966660 267.185425,180.877930 
	C264.475616,180.855377 263.232819,181.747482 263.268860,184.593994 
	C263.363586,192.082123 263.379517,199.573669 263.255249,207.060989 
	C263.203003,210.209946 264.653656,211.047806 267.522003,210.957275 
	C272.177368,210.810318 276.840881,210.921112 282.500458,210.923157 
M336.765198,240.919922 
	C333.987518,240.642731 332.955994,241.885986 333.000580,244.668533 
	C333.120148,252.136261 333.153625,259.609711 332.986847,267.075653 
	C332.915314,270.279266 334.363495,270.995178 337.191681,270.950348 
	C344.493530,270.834656 351.800598,270.806152 359.101044,270.960083 
	C362.168945,271.024750 363.155365,269.836731 363.099731,266.874451 
	C362.962677,259.573364 362.914246,252.264053 363.117096,244.966019 
	C363.213531,241.495865 361.642273,240.808670 358.627228,240.869080 
	C351.658356,241.008682 344.684723,240.912094 336.765198,240.919922 
z"/>
<path fill="#195D80" opacity="1.000000" stroke="none" 
	d="
M257.057068,271.145874 
	C257.046082,291.734070 257.035095,312.322266 256.912720,333.615723 
	C256.646179,334.820648 256.490967,335.320312 256.224426,336.214905 
	C246.281631,373.104156 236.450211,409.598511 226.512451,446.487610 
	C235.463150,448.882874 243.697037,450.832458 251.747742,453.364410 
	C255.015640,454.392212 255.875458,452.935516 256.750244,450.590942 
	C256.833313,471.081512 256.916382,491.572113 256.999725,512.531372 
	C171.724396,513.000000 86.448792,513.000000 1.000000,513.000000 
	C1.000000,382.979156 1.000000,252.958237 1.468460,122.483200 
	C53.316055,122.030731 104.695190,122.042549 156.074326,122.026810 
	C168.708069,122.022934 181.341766,121.929169 194.441010,121.947266 
	C215.617630,121.956314 236.328751,121.894844 257.004211,121.924538 
	C256.968567,122.015701 256.946747,122.210258 256.970734,122.411659 
	C256.994720,122.613060 257.046997,123.015320 257.046997,123.015320 
	C257.043060,161.939926 257.039124,200.864517 257.016632,240.346436 
	C256.998077,240.903748 256.971375,241.124542 256.511902,241.047119 
	C216.978668,240.969696 177.904922,240.969696 138.166229,240.969696 
	C138.166229,249.645081 138.335480,257.760040 138.092224,265.862549 
	C137.976929,269.702942 139.056686,271.059814 143.106003,271.005890 
	C159.419891,270.788544 175.738434,270.942657 192.055161,270.910706 
	C213.695648,270.868286 235.336014,270.780182 256.990784,270.821381 
	C257.005127,270.931000 257.057068,271.145874 257.057068,271.145874 
M134.500000,210.915817 
	C167.249069,210.915817 199.998154,210.915817 232.861572,210.915817 
	C232.861572,200.548080 232.861572,190.992447 232.861572,181.303894 
	C176.423279,181.303894 120.396774,181.303894 64.272148,181.303894 
	C64.272148,191.263062 64.272148,200.821793 64.272148,210.915802 
	C87.600029,210.915802 110.550011,210.915802 134.500000,210.915817 
M194.005356,410.494110 
	C188.255798,404.273987 182.506226,398.053864 176.487061,391.542084 
	C186.510483,380.664154 196.278717,370.063171 206.354233,359.128723 
	C198.875275,352.213959 191.738113,345.615234 184.361603,338.795227 
	C167.931091,356.544189 151.889450,373.873108 135.544113,391.530060 
	C152.574860,409.912476 169.363907,428.034027 186.332794,446.349670 
	C193.884796,439.335999 200.925491,432.797180 208.262222,425.983429 
	C203.458481,420.757996 198.975708,415.881683 194.005356,410.494110 
M119.500000,300.906342 
	C101.112144,300.906342 82.724297,300.906342 64.265114,300.906342 
	C64.265114,311.274139 64.265114,320.822632 64.265114,330.917328 
	C66.582390,330.917328 68.541939,330.917297 70.501488,330.917297 
	C92.125343,330.917358 113.749207,330.917450 135.373062,330.917450 
	C145.858231,330.917450 145.858231,330.917419 145.858276,320.445312 
	C145.858307,314.043213 145.858292,307.641144 145.858292,300.906311 
	C136.774948,300.906311 128.637466,300.906311 119.500000,300.906342 
M81.501480,240.907135 
	C75.751198,240.907135 70.000916,240.907135 64.315918,240.907135 
	C64.315918,251.350296 64.315918,260.906403 64.315918,270.557648 
	C78.306824,270.557648 91.868263,270.557648 105.652122,270.557648 
	C105.652122,260.636383 105.652122,251.075592 105.652122,240.907120 
	C97.731079,240.907120 90.115906,240.907120 81.501480,240.907135 
z"/>
<path fill="#B9D4D9" opacity="1.000000" stroke="none" 
	d="
M512.002441,122.190536 
	C511.007019,122.138802 510.011597,122.041756 509.016174,122.041786 
	C425.653381,122.044319 342.290558,122.054398 258.198792,122.071381 
	C257.295471,122.122635 257.121124,122.166443 256.946747,122.210258 
	C256.946747,122.210258 256.968567,122.015701 256.997437,121.466492 
	C257.017578,80.944862 257.008789,40.972431 257.000000,1.000000 
	C342.234222,1.000000 427.468414,1.000000 513.000000,1.000000 
	C513.000000,41.020405 513.000000,81.041542 512.745117,121.550110 
	C512.327576,122.088539 512.164978,122.139534 512.002441,122.190536 
M452.984039,69.366455 
	C452.984039,71.510872 452.984039,73.655289 452.984039,76.177971 
	C463.142822,76.177971 472.862244,76.177971 482.682983,76.177971 
	C482.682983,66.207741 482.682983,56.633125 482.682983,46.946823 
	C472.666077,46.946823 462.989014,46.946823 452.984039,46.946823 
	C452.984039,54.441051 452.984039,61.421375 452.984039,69.366455 
M423.015289,53.633472 
	C423.015289,51.504139 423.015289,49.374805 423.015289,46.832527 
	C412.813934,46.832527 403.151947,46.832527 393.022522,46.832527 
	C393.022522,56.067600 392.904602,64.844536 393.179932,73.609116 
	C393.212341,74.641068 395.375305,76.421997 396.601532,76.466934 
	C404.060181,76.740234 411.534302,76.554070 419.001740,76.644867 
	C421.947571,76.680679 423.135956,75.547897 423.054596,72.521172 
	C422.894135,66.550629 423.012360,60.572598 423.015289,53.633472 
M363.014954,50.791100 
	C362.325500,49.373589 361.672882,46.744736 360.940979,46.722462 
	C351.734375,46.442272 342.516296,46.538570 333.331665,46.538570 
	C333.331665,56.914013 333.331665,66.461296 333.331665,76.081139 
	C343.356049,76.081139 353.026001,76.081139 363.015839,76.081139 
	C363.015839,67.654991 363.015839,59.694668 363.014954,50.791100 
z"/>
<path fill="#C6E1E4" opacity="1.000000" stroke="none" 
	d="
M256.531342,1.000000 
	C257.008789,40.972431 257.017578,80.944862 257.033081,121.375336 
	C236.328751,121.894844 215.617630,121.956314 194.370331,121.596199 
	C190.201447,113.130592 186.914001,104.908310 182.870239,97.076546 
	C171.502838,75.060753 153.082489,62.688202 128.493988,62.217903 
	C86.010139,61.405319 43.499435,61.997288 1.000000,62.000000 
	C1.000000,41.694759 1.000000,21.389515 1.000000,1.000000 
	C86.020874,1.000000 171.041779,1.000000 256.531342,1.000000 
z"/>
<path fill="#EEF5F6" opacity="1.000000" stroke="none" 
	d="
M1.000000,62.468658 
	C43.499435,61.997288 86.010139,61.405319 128.493988,62.217903 
	C153.082489,62.688202 171.502838,75.060753 182.870239,97.076546 
	C186.914001,104.908310 190.201447,113.130592 193.904816,121.525681 
	C181.341766,121.929169 168.708069,122.022934 156.074326,122.026810 
	C104.695190,122.042549 53.316055,122.030731 1.468460,122.014542 
	C1.000000,102.312439 1.000000,82.624878 1.000000,62.468658 
z"/>
<path fill="#1F536D" opacity="1.000000" stroke="none" 
	d="
M512.160278,122.335579 
	C512.164978,122.139534 512.327576,122.088539 512.745117,122.018768 
	C513.000000,122.000000 513.000000,122.500000 513.000000,122.750000 
	C512.768188,122.832794 512.540833,122.659668 512.160278,122.335579 
z"/>
<path fill="#2EE56B" opacity="1.000000" stroke="none" 
	d="
M327.369781,441.356750 
	C325.557648,443.283691 323.983521,444.954346 322.034729,447.022705 
	C314.675537,440.214203 307.642456,433.707428 300.201965,426.823700 
	C302.566040,424.172913 304.596313,421.830902 306.696533,419.553375 
	C314.036926,411.593048 321.293884,403.550964 328.816528,395.766052 
	C331.373871,393.119507 331.344391,391.435638 328.814819,388.803284 
	C320.851532,380.516571 313.132782,371.994720 305.337769,363.546875 
	C304.344116,362.469971 303.459564,361.292450 302.194611,359.762665 
	C309.425201,353.054199 316.455963,346.531158 323.997833,339.533936 
	C340.266449,357.096558 356.283081,374.387146 372.820923,392.240448 
	C357.594208,408.695343 342.601013,424.897919 327.369781,441.356750 
z"/>
<path fill="#65FD99" opacity="1.000000" stroke="none" 
	d="
M256.773987,450.224976 
	C255.875458,452.935516 255.015640,454.392212 251.747742,453.364410 
	C243.697037,450.832458 235.463150,448.882874 226.512451,446.487610 
	C236.450211,409.598511 246.281631,373.104156 256.357086,336.630096 
	C256.736694,339.134827 256.986176,341.619080 256.990662,344.103790 
	C257.052643,378.382141 257.080933,412.660553 257.117462,446.938934 
	C257.010864,447.912292 256.904266,448.885681 256.773987,450.224976 
z"/>
<path fill="#2EE56B" opacity="1.000000" stroke="none" 
	d="
M439.959900,240.909119 
	C450.107788,240.910782 450.108856,240.910782 450.107697,250.772232 
	C450.107086,256.099396 450.008331,261.428802 450.137054,266.752777 
	C450.206055,269.608276 449.403992,270.979950 446.226959,270.958466 
	C430.079773,270.849304 413.931061,270.850708 397.783875,270.957916 
	C394.636902,270.978821 393.791016,269.657715 393.838318,266.777252 
	C393.955841,259.620850 394.031372,252.456360 393.809296,245.304886 
	C393.696747,241.681686 395.191650,240.824554 398.515411,240.857071 
	C412.164917,240.990616 425.816528,240.910583 439.959900,240.909119 
z"/>
<path fill="#2EE46B" opacity="1.000000" stroke="none" 
	d="
M257.312866,446.639587 
	C257.080933,412.660553 257.052643,378.382141 256.990662,344.103790 
	C256.986176,341.619080 256.736694,339.134827 256.468445,336.235168 
	C256.490967,335.320312 256.646179,334.820648 256.914734,334.073486 
	C266.486176,336.283661 275.944275,338.741364 286.009460,341.356842 
	C276.402008,376.745667 266.955139,411.542969 257.312866,446.639587 
z"/>
<path fill="#2EE56B" opacity="1.000000" stroke="none" 
	d="
M257.023254,240.795441 
	C270.659637,240.766251 284.272949,241.006622 297.880768,240.829025 
	C302.119141,240.773697 303.299591,242.185532 303.119080,246.238770 
	C302.823822,252.867691 302.855591,259.526337 303.109894,266.158630 
	C303.251740,269.857513 302.052551,271.047028 298.317169,270.999847 
	C284.869965,270.830078 271.418793,270.973328 257.513092,271.072083 
	C257.057068,271.145874 257.005127,270.931000 256.994751,270.370911 
	C256.980072,260.248718 256.975739,250.686630 256.971375,241.124542 
	C256.971375,241.124542 256.998077,240.903748 257.023254,240.795441 
z"/>
<path fill="#2EE46B" opacity="1.000000" stroke="none" 
	d="
M282.000732,210.923126 
	C276.840881,210.921112 272.177368,210.810318 267.522003,210.957275 
	C264.653656,211.047806 263.203003,210.209946 263.255249,207.060989 
	C263.379517,199.573669 263.363586,192.082123 263.268860,184.593994 
	C263.232819,181.747482 264.475616,180.855377 267.185425,180.877930 
	C277.836304,180.966660 288.489441,180.998123 299.139313,180.861649 
	C302.271118,180.821518 303.138367,182.085281 303.083832,185.005447 
	C302.947021,192.325882 302.930908,199.652878 303.087616,206.972488 
	C303.153900,210.067139 301.937469,211.043320 298.975952,210.960190 
	C293.488098,210.806107 287.992706,210.920547 282.000732,210.923126 
z"/>
<path fill="#2EE56B" opacity="1.000000" stroke="none" 
	d="
M337.239136,240.915619 
	C344.684723,240.912094 351.658356,241.008682 358.627228,240.869080 
	C361.642273,240.808670 363.213531,241.495865 363.117096,244.966019 
	C362.914246,252.264053 362.962677,259.573364 363.099731,266.874451 
	C363.155365,269.836731 362.168945,271.024750 359.101044,270.960083 
	C351.800598,270.806152 344.493530,270.834656 337.191681,270.950348 
	C334.363495,270.995178 332.915314,270.279266 332.986847,267.075653 
	C333.153625,259.609711 333.120148,252.136261 333.000580,244.668533 
	C332.955994,241.885986 333.987518,240.642731 337.239136,240.915619 
z"/>
<path fill="#1F536D" opacity="1.000000" stroke="none" 
	d="
M256.970734,122.411659 
	C257.121124,122.166443 257.295471,122.122635 257.733704,122.134186 
	C257.808502,122.397888 257.603577,122.589294 257.214905,122.889542 
	C257.046997,123.015320 256.994720,122.613060 256.970734,122.411659 
z"/>
<path fill="#66FE99" opacity="1.000000" stroke="none" 
	d="
M134.000000,210.915802 
	C110.550011,210.915802 87.600029,210.915802 64.272148,210.915802 
	C64.272148,200.821793 64.272148,191.263062 64.272148,181.303894 
	C120.396774,181.303894 176.423279,181.303894 232.861572,181.303894 
	C232.861572,190.992447 232.861572,200.548080 232.861572,210.915817 
	C199.998154,210.915817 167.249069,210.915817 134.000000,210.915802 
z"/>
<path fill="#65FD99" opacity="1.000000" stroke="none" 
	d="
M194.249146,410.749756 
	C198.975708,415.881683 203.458481,420.757996 208.262222,425.983429 
	C200.925491,432.797180 193.884796,439.335999 186.332794,446.349670 
	C169.363907,428.034027 152.574860,409.912476 135.544113,391.530060 
	C151.889450,373.873108 167.931091,356.544189 184.361603,338.795227 
	C191.738113,345.615234 198.875275,352.213959 206.354233,359.128723 
	C196.278717,370.063171 186.510483,380.664154 176.487061,391.542084 
	C182.506226,398.053864 188.255798,404.273987 194.249146,410.749756 
z"/>
<path fill="#65FE99" opacity="1.000000" stroke="none" 
	d="
M256.511902,241.047119 
	C256.975739,250.686630 256.980072,260.248718 256.980408,270.261292 
	C235.336014,270.780182 213.695648,270.868286 192.055161,270.910706 
	C175.738434,270.942657 159.419891,270.788544 143.106003,271.005890 
	C139.056686,271.059814 137.976929,269.702942 138.092224,265.862549 
	C138.335480,257.760040 138.166229,249.645081 138.166229,240.969696 
	C177.904922,240.969696 216.978668,240.969696 256.511902,241.047119 
z"/>
<path fill="#65FE99" opacity="1.000000" stroke="none" 
	d="
M120.000000,300.906311 
	C128.637466,300.906311 136.774948,300.906311 145.858292,300.906311 
	C145.858292,307.641144 145.858307,314.043213 145.858276,320.445312 
	C145.858231,330.917419 145.858231,330.917450 135.373062,330.917450 
	C113.749207,330.917450 92.125343,330.917358 70.501488,330.917297 
	C68.541939,330.917297 66.582390,330.917328 64.265114,330.917328 
	C64.265114,320.822632 64.265114,311.274139 64.265114,300.906342 
	C82.724297,300.906342 101.112144,300.906342 120.000000,300.906311 
z"/>
<path fill="#66FE99" opacity="1.000000" stroke="none" 
	d="
M82.001106,240.907135 
	C90.115906,240.907120 97.731079,240.907120 105.652122,240.907120 
	C105.652122,251.075592 105.652122,260.636383 105.652122,270.557648 
	C91.868263,270.557648 78.306824,270.557648 64.315918,270.557648 
	C64.315918,260.906403 64.315918,251.350296 64.315918,240.907135 
	C70.000916,240.907135 75.751198,240.907135 82.001106,240.907135 
z"/>
<path fill="#29B486" opacity="1.000000" stroke="none" 
	d="
M452.984039,68.884079 
	C452.984039,61.421375 452.984039,54.441051 452.984039,46.946823 
	C462.989014,46.946823 472.666077,46.946823 482.682983,46.946823 
	C482.682983,56.633125 482.682983,66.207741 482.682983,76.177971 
	C472.862244,76.177971 463.142822,76.177971 452.984039,76.177971 
	C452.984039,73.655289 452.984039,71.510872 452.984039,68.884079 
z"/>
<path fill="#FDE56A" opacity="1.000000" stroke="none" 
	d="
M423.015320,54.115566 
	C423.012360,60.572598 422.894135,66.550629 423.054596,72.521172 
	C423.135956,75.547897 421.947571,76.680679 419.001740,76.644867 
	C411.534302,76.554070 404.060181,76.740234 396.601532,76.466934 
	C395.375305,76.421997 393.212341,74.641068 393.179932,73.609116 
	C392.904602,64.844536 393.022522,56.067600 393.022522,46.832527 
	C403.151947,46.832527 412.813934,46.832527 423.015289,46.832527 
	C423.015289,49.374805 423.015289,51.504139 423.015320,54.115566 
z"/>
<path fill="#FD5261" opacity="1.000000" stroke="none" 
	d="
M363.015381,51.262722 
	C363.015839,59.694668 363.015839,67.654991 363.015839,76.081139 
	C353.026001,76.081139 343.356049,76.081139 333.331665,76.081139 
	C333.331665,66.461296 333.331665,56.914013 333.331665,46.538570 
	C342.516296,46.538570 351.734375,46.442272 360.940979,46.722462 
	C361.672882,46.744736 362.325500,49.373589 363.015381,51.262722 
z"/>
</svg>